# Blender v2.90.1 OBJ File: ''
# www.blender.org
mtllib OctagonStage.mtl
o Cube_Cube.001
v -2.000000 -0.800000 0.100000
v -0.800000 -2.000000 0.100000
v -0.800000 2.000000 0.100000
v -2.000000 0.800000 0.100000
v -0.800000 -2.000000 -0.100000
v -2.000000 -0.800000 -0.100000
v -2.000000 0.800000 -0.100000
v -0.800000 2.000000 -0.100000
v 0.800000 -2.000000 0.100000
v 2.000000 -0.800000 0.100000
v 2.000000 0.800000 0.100000
v 0.800000 2.000000 0.100000
v 2.000000 -0.800000 -0.100000
v 0.800000 -2.000000 -0.100000
v 0.800000 2.000000 -0.100000
v 2.000000 0.800000 -0.100000
vt 0.375000 0.825000
vt 0.450000 0.750000
vt 0.550000 0.750000
vt 0.625000 0.825000
vt 0.625000 0.925000
vt 0.550000 1.000000
vt 0.450000 1.000000
vt 0.375000 0.925000
vt 0.450000 0.500000
vt 0.550000 0.500000
vt 0.700000 0.500000
vt 0.800000 0.500000
vt 0.800000 0.750000
vt 0.700000 0.750000
vt 0.450000 0.000000
vt 0.550000 0.000000
vt 0.550000 0.250000
vt 0.450000 0.250000
vt 0.375000 0.325000
vt 0.625000 0.325000
vt 0.625000 0.425000
vt 0.375000 0.425000
vt 0.200000 0.500000
vt 0.200000 0.750000
vt 0.125000 0.750000
vt 0.125000 0.500000
vt 0.625000 0.000000
vt 0.625000 0.250000
vt 0.300000 0.750000
vt 0.300000 0.500000
vn 0.0000 0.0000 1.0000
vn 1.0000 0.0000 0.0000
vn 0.0000 1.0000 0.0000
vn -1.0000 0.0000 0.0000
vn 0.0000 0.0000 -1.0000
vn -0.7071 -0.7071 0.0000
vn -0.7071 0.7071 0.0000
vn 0.7071 -0.7071 0.0000
vn 0.7071 0.7071 0.0000
vn 0.0000 -1.0000 0.0000
usemtl Material.001
s off
f 9/1/1 10/2/1 11/3/1 12/4/1 3/5/1 4/6/1 1/7/1 2/8/1
f 13/9/2 16/10/2 11/3/2 10/2/2
f 15/11/3 8/12/3 3/13/3 12/14/3
f 1/15/4 4/16/4 7/17/4 6/18/4
f 5/19/5 6/18/5 7/17/5 8/20/5 15/21/5 16/10/5 13/9/5 14/22/5
f 5/23/6 2/24/6 1/25/6 6/26/6
f 3/27/7 8/28/7 7/17/7 4/16/7
f 9/29/8 14/30/8 13/9/8 10/2/8
f 15/11/9 12/14/9 11/3/9 16/10/9
f 5/23/10 14/30/10 9/29/10 2/24/10
o Cube.001_Cube.002
v -1.900000 -0.758579 -0.100000
v -2.000000 -0.800000 -0.110000
v -0.758579 -1.900000 -0.100000
v -0.800000 -2.000000 -0.110000
v -0.758579 1.900000 -0.100000
v -0.800000 2.000000 -0.110000
v -1.900000 0.758579 -0.100000
v -2.000000 0.800000 -0.110000
v -0.758579 -1.900000 -0.500000
v -0.800000 -2.000000 -0.490000
v -1.900000 -0.758579 -0.500000
v -2.000000 -0.800000 -0.490000
v -1.900000 0.758579 -0.500000
v -2.000000 0.800000 -0.490000
v -0.758579 1.900000 -0.500000
v -0.800000 2.000000 -0.490000
v 0.758579 -1.900000 -0.100000
v 0.800000 -2.000000 -0.110000
v 1.900000 -0.758579 -0.100000
v 2.000000 -0.800000 -0.110000
v 1.900000 0.758579 -0.100000
v 2.000000 0.800000 -0.110000
v 0.758579 1.900000 -0.100000
v 0.800000 2.000000 -0.110000
v 1.900000 -0.758579 -0.500000
v 2.000000 -0.800000 -0.490000
v 0.758579 -1.900000 -0.500000
v 0.800000 -2.000000 -0.490000
v 0.758579 1.900000 -0.500000
v 0.800000 2.000000 -0.490000
v 1.900000 0.758579 -0.500000
v 2.000000 0.800000 -0.490000
vt 0.200000 0.506250
vt 0.300000 0.506250
vt 0.300000 0.743750
vt 0.200000 0.743750
vt 0.700000 0.506250
vt 0.700000 0.743750
vt 0.550000 0.743750
vt 0.550000 0.506250
vt 0.300000 0.743750
vt 0.450000 0.506250
vt 0.450000 0.743750
vt 0.450000 0.006250
vt 0.550000 0.006250
vt 0.550000 0.243750
vt 0.450000 0.243750
vt 0.700000 0.506250
vt 0.800000 0.506250
vt 0.800000 0.743750
vt 0.700000 0.743750
vt 0.450000 0.506250
vt 0.550000 0.743750
vt 0.450000 0.743750
vt 0.625000 0.006250
vt 0.625000 0.243750
vt 0.550000 0.243750
vt 0.452589 0.256250
vt 0.381250 0.327589
vt 0.375000 0.325000
vt 0.450000 0.250000
vt 0.381250 0.922411
vt 0.452589 0.993750
vt 0.450000 1.000000
vt 0.375000 0.925000
vt 0.547411 0.993750
vt 0.618750 0.922411
vt 0.625000 0.925000
vt 0.550000 1.000000
vt 0.618750 0.327589
vt 0.547411 0.256250
vt 0.550000 0.250000
vt 0.625000 0.325000
vt 0.452589 0.756250
vt 0.381250 0.827589
vt 0.375000 0.825000
vt 0.450000 0.750000
vt 0.381250 0.422411
vt 0.452589 0.493750
vt 0.450000 0.500000
vt 0.375000 0.425000
vt 0.547411 0.493750
vt 0.618750 0.422411
vt 0.625000 0.425000
vt 0.550000 0.500000
vt 0.618750 0.827589
vt 0.547411 0.756250
vt 0.550000 0.750000
vt 0.625000 0.825000
vt 0.200000 0.506250
vt 0.200000 0.743750
vt 0.125000 0.743750
vt 0.125000 0.506250
vn 0.0000 -1.0000 0.0000
vn 0.7071 0.7071 0.0000
vn 0.7071 -0.7071 0.0000
vn -1.0000 0.0000 0.0000
vn 0.0000 1.0000 0.0000
vn 1.0000 0.0000 0.0000
vn -0.7071 0.7071 0.0000
vn -0.0704 -0.0704 -0.9950
vn -0.0704 -0.0704 0.9950
vn -0.0704 0.0704 0.9950
vn -0.0704 0.0704 -0.9950
vn 0.0704 -0.0704 0.9950
vn 0.0704 -0.0704 -0.9950
vn 0.0704 0.0704 -0.9950
vn 0.0704 0.0704 0.9950
vn 0.0000 -0.0995 -0.9950
vn 0.0000 -0.0995 0.9950
vn -0.0995 0.0000 0.9950
vn -0.0995 0.0000 -0.9950
vn 0.0995 0.0000 0.9950
vn 0.0000 0.0995 0.9950
vn 0.0000 0.0995 -0.9950
vn 0.0995 0.0000 -0.9950
vn -0.7071 -0.7071 0.0000
usemtl Material.002
s off
f 26/31/11 44/32/11 34/33/11 20/34/11
f 46/35/12 40/36/12 38/37/12 48/38/12
f 34/39/13 44/32/13 42/40/13 36/41/13
f 18/42/14 24/43/14 30/44/14 28/45/14
f 46/46/15 32/47/15 22/48/15 40/49/15
f 42/50/16 48/38/16 38/51/16 36/52/16
f 22/53/17 32/54/17 30/55/17 24/43/17
f 27/56/18 25/57/18 26/58/18 28/59/18
f 19/60/19 17/61/19 18/62/19 20/63/19
f 23/64/20 21/65/20 22/66/20 24/67/20
f 31/68/21 29/69/21 30/70/21 32/71/21
f 35/72/22 33/73/22 34/74/22 36/75/22
f 43/76/23 41/77/23 42/78/23 44/79/23
f 47/80/24 45/81/24 46/82/24 48/83/24
f 39/84/25 37/85/25 38/86/25 40/87/25
f 25/57/26 43/76/26 44/79/26 26/58/26
f 33/73/27 19/60/27 20/63/27 34/74/27
f 17/61/28 23/64/28 24/67/28 18/62/28
f 29/69/29 27/56/29 28/45/29 30/44/29
f 36/52/30 38/51/30 37/85/30 35/72/30
f 40/87/31 22/66/31 21/65/31 39/84/31
f 45/81/32 31/68/32 32/71/32 46/82/32
f 48/38/33 42/50/33 41/77/33 47/80/33
f 26/88/34 20/89/34 18/90/34 28/91/34
f 17/61/16 27/56/16 29/69/16 23/64/16
f 23/64/13 29/69/13 31/68/13 21/65/13
f 21/65/11 31/68/11 45/81/11 39/84/11
f 47/80/34 37/85/34 39/84/34 45/81/34
f 37/85/14 47/80/14 41/77/14 35/72/14
f 35/72/17 41/77/17 43/76/17 33/73/17
f 25/57/15 19/60/15 33/73/15 43/76/15
f 27/56/12 17/61/12 19/60/12 25/57/12
